<svg width="32" height="32" viewBox="0 0 32 32" fill="none" xmlns="http://www.w3.org/2000/svg">
<path d="M0 8C0 4.22876 0 2.34315 1.17157 1.17157C2.34315 0 4.22876 0 8 0H24C27.7712 0 29.6569 0 30.8284 1.17157C32 2.34315 32 4.22876 32 8V24C32 27.7712 32 29.6569 30.8284 30.8284C29.6569 32 27.7712 32 24 32H8C4.22876 32 2.34315 32 1.17157 30.8284C0 29.6569 0 27.7712 0 24V8Z" fill="white"/>
<path d="M3.80273 22.3328H4.44556V26.3505H3.80273V22.3328Z" fill="black"/>
<path d="M28.4643 26.5112V27.1473H29.1209V26.5112H29.3551V28.1183H29.1209V27.3786H28.4643V28.1183H28.2302V26.5112H28.4643Z" fill="#739094"/>
<path d="M26.4218 26.7713L26.2371 26.8828C26.2236 26.8479 26.2033 26.8154 26.1695 26.7852C26.1222 26.7458 26.0726 26.7295 26.0073 26.7295C25.8676 26.7295 25.7955 26.8154 25.7955 26.9153C25.7955 26.9617 25.8113 27.043 25.9577 27.1034L26.1087 27.1661C26.3858 27.2822 26.4624 27.4448 26.4624 27.6213C26.4624 27.9162 26.2596 28.1183 25.978 28.1183C25.8045 28.1183 25.7009 28.0509 25.6243 27.9627C25.5432 27.8698 25.5072 27.7676 25.4981 27.6608L25.7257 27.6097C25.7257 27.6863 25.7527 27.7583 25.7888 27.8071C25.8316 27.8628 25.8947 27.9 25.9848 27.9C26.1245 27.9 26.2326 27.7955 26.2326 27.6399C26.2326 27.4819 26.1154 27.4169 26.0163 27.3751L25.8721 27.3124C25.7482 27.259 25.5657 27.1522 25.5657 26.9199C25.5657 26.7109 25.7234 26.5112 26.005 26.5112C26.1673 26.5112 26.2596 26.5739 26.3069 26.6157C26.3475 26.6529 26.3903 26.7063 26.4218 26.7713Z" fill="#739094"/>
<path d="M24.2125 26.5112V26.7425H23.5155V27.1497H24.1915V27.381H23.5155V27.887H24.2125V28.1183H23.2483V26.5112H24.2125Z" fill="#739094"/>
<path d="M20.3555 26.5112H20.7376C20.9693 26.5112 21.1379 26.5353 21.3223 26.6678C21.5241 26.8148 21.6412 27.0485 21.6412 27.3159C21.6412 27.5834 21.5266 27.8147 21.3073 27.9641C21.113 28.0966 20.9311 28.1183 20.6994 28.1183H20.3555V26.5112ZM20.6097 26.7425V27.887H20.7193C20.8439 27.887 21.0158 27.8773 21.1603 27.7737C21.2749 27.6894 21.387 27.5352 21.387 27.3159C21.387 27.1039 21.2824 26.9377 21.1628 26.8533C21.0183 26.7521 20.8414 26.7425 20.7193 26.7425H20.6097Z" fill="#739094"/>
<path d="M19.1185 28.1183L18.9449 27.7518H18.2381L18.057 28.1183H17.7842L18.6076 26.5112L19.3913 28.1183H19.1185ZM18.3422 27.5333H18.8432L18.5977 27.0188L18.3422 27.5333Z" fill="#739094"/>
<path d="M15.3736 26.5112H15.6487V27.887H16.1772V28.1183H15.3736V26.5112Z" fill="#739094"/>
<path d="M9.51852 28.1153H9.26677V26.5112L10.4614 27.6299V26.6011H10.7131L10.7054 28.1183L9.51852 27.0487V28.1153Z" fill="#739094"/>
<path d="M27.2659 26.3505V22.3328H27.8315V24.2287C28.0739 23.9917 28.3394 23.9697 28.4837 23.9697C28.928 23.9697 29.13 24.1901 29.1993 24.2838C29.3493 24.4932 29.3551 24.7633 29.3551 24.9286V26.3505H28.7895V24.9782C28.7895 24.8404 28.7895 24.6916 28.6799 24.5759C28.6164 24.5098 28.5067 24.4546 28.3625 24.4546C28.172 24.4546 28.022 24.5428 27.9469 24.6475C27.8661 24.7578 27.8315 24.9341 27.8315 25.2317V26.3505H27.2659Z" fill="#00AE60"/>
<path d="M26.6231 23.9525V24.5881C26.3737 24.3339 26.1299 24.2877 25.9636 24.2877C25.7087 24.2877 25.548 24.3975 25.4483 24.5015C25.3485 24.6055 25.2488 24.7904 25.2488 25.062C25.2488 25.3451 25.3541 25.5358 25.4594 25.6456C25.5813 25.7669 25.7531 25.842 25.9526 25.842C26.1742 25.842 26.4347 25.7496 26.6231 25.53V26.1598C26.4901 26.2465 26.274 26.3505 25.9138 26.3505C25.5259 26.3505 25.2488 26.2349 25.0271 25.9922C24.8609 25.8131 24.6946 25.5242 24.6946 25.0793C24.6946 24.6228 24.8775 24.3166 25.0493 24.1374C25.2322 23.9468 25.5259 23.7792 25.9858 23.7792C26.1631 23.7792 26.3737 23.8081 26.6231 23.9525Z" fill="#00AE60"/>
<path d="M23.7028 25.4549L24.1945 25.7207C24.0866 25.9056 23.9307 26.0674 23.7687 26.1656C23.5649 26.2927 23.295 26.3505 23.0252 26.3505C22.6894 26.3505 22.4135 26.2696 22.1737 26.0385C21.9338 25.8073 21.8019 25.4722 21.8019 25.1082C21.8019 24.7326 21.9398 24.3686 22.2037 24.1085C22.4135 23.9063 22.6894 23.7792 23.0492 23.7792C23.4509 23.7792 23.7088 23.9468 23.8587 24.097C24.1825 24.4206 24.2125 24.8713 24.2125 25.1255V25.1949H22.4015C22.4135 25.3682 22.4915 25.5647 22.6174 25.686C22.7553 25.8189 22.9232 25.842 23.0672 25.842C23.2291 25.842 23.349 25.8073 23.4689 25.7207C23.5709 25.6456 23.6488 25.5473 23.7028 25.4549ZM22.4435 24.7326H23.6128C23.5889 24.5997 23.5229 24.4841 23.4329 24.4032C23.355 24.3339 23.2291 24.2646 23.0372 24.2646C22.8333 24.2646 22.7014 24.3455 22.6234 24.4206C22.5395 24.4957 22.4735 24.6113 22.4435 24.7326Z" fill="#00AE60"/>
<path d="M21.9626 22.9757H20.9984L20.9984 26.3505H20.3555V22.9757H19.3913V22.3328H21.9626V22.9757Z" fill="#00AE60"/>
<path d="M19.3913 24.422H18.913V26.3505H18.4271V24.422H18.1056V23.9399H18.4271V22.9757H18.913V23.9399H19.3913V24.422Z" fill="black"/>
<path d="M15.3736 26.3505V22.3328H15.9392V24.2287C16.1816 23.9917 16.4471 23.9697 16.5914 23.9697C17.0357 23.9697 17.2377 24.1901 17.307 24.2838C17.457 24.4932 17.4628 24.7633 17.4628 24.9286V26.3505H16.8972V24.9782C16.8972 24.8404 16.8972 24.6916 16.7876 24.5759C16.7241 24.5098 16.6144 24.4546 16.4702 24.4546C16.2797 24.4546 16.1297 24.5428 16.0546 24.6475C15.9738 24.7578 15.9392 24.9341 15.9392 25.2317V26.3505H15.3736Z" fill="black"/>
<path d="M11.9988 22.4935C11.9988 23.0261 11.5671 23.4578 11.0345 23.4578C10.502 23.4578 10.0703 23.0261 10.0703 22.4935C10.0703 21.961 10.502 21.5293 11.0345 21.5293C11.5671 21.5293 11.9988 21.961 11.9988 22.4935Z" fill="#739094"/>
<path d="M11.9111 22.4935C11.9111 22.9777 11.5187 23.3701 11.0345 23.3701C10.5504 23.3701 10.158 22.9777 10.158 22.4935C10.158 22.0094 10.5504 21.617 11.0345 21.617C11.5187 21.617 11.9111 22.0094 11.9111 22.4935Z" fill="black"/>
<path d="M11.5313 22.4935C11.5313 22.7679 11.3089 22.9903 11.0345 22.9903C10.7602 22.9903 10.5378 22.7679 10.5378 22.4935C10.5378 22.2192 10.7602 21.9968 11.0345 21.9968C11.3089 21.9968 11.5313 22.2192 11.5313 22.4935Z" fill="white"/>
<path d="M11.356 22.4935C11.356 22.6711 11.2121 22.815 11.0345 22.815C10.857 22.815 10.7131 22.6711 10.7131 22.4935C10.7131 22.316 10.857 22.1721 11.0345 22.1721C11.2121 22.1721 11.356 22.316 11.356 22.4935Z" fill="black"/>
<path d="M10.7131 23.9399H11.356V26.3505H10.7131V23.9399Z" fill="black"/>
<path d="M5.40981 26.3505V23.9399H5.97904V24.147C6.223 23.8759 6.4757 23.8595 6.61511 23.8595C7.06817 23.8595 7.28596 24.0836 7.36147 24.1874C7.45441 24.3201 7.49899 24.422 7.49899 24.8238V26.3505H7.01687V24.9845C7.01687 24.3673 6.66932 24.3417 6.4544 24.3417C6.19882 24.3417 5.89193 24.3607 5.89193 25.1452C5.89193 25.9297 5.89193 26.3505 5.89193 26.3505H5.40981Z" fill="black"/>
<path d="M9.98191 24.2068L9.55175 24.4841C9.49283 24.3917 9.38087 24.2761 9.1982 24.2761C9.1157 24.2761 9.05678 24.305 9.02142 24.3397C8.99196 24.3686 8.96839 24.4148 8.96839 24.4668C8.96839 24.5304 8.99785 24.5708 9.05089 24.6055C9.08624 24.6286 9.12159 24.6401 9.24534 24.7037L9.53997 24.8482C9.66961 24.9117 9.79335 24.9753 9.88763 25.0735C10.0232 25.2064 10.0703 25.3566 10.0703 25.5242C10.0703 25.7438 9.9878 25.9345 9.85228 26.0789C9.65782 26.2869 9.41622 26.3505 9.15695 26.3505C8.99785 26.3505 8.7975 26.3274 8.62073 26.1945C8.4793 26.0905 8.36145 25.9229 8.30253 25.7496L8.77393 25.53C8.8034 25.6109 8.85643 25.7149 8.90946 25.7611C8.94482 25.7958 9.02731 25.8536 9.16284 25.8536C9.25123 25.8536 9.34551 25.8247 9.39855 25.7727C9.44569 25.7265 9.48104 25.6513 9.48104 25.582C9.48104 25.5127 9.45747 25.4549 9.40444 25.3971C9.33373 25.3278 9.25123 25.2873 9.15695 25.2469L8.94482 25.1486C8.83286 25.0966 8.69733 25.0331 8.60305 24.9406C8.47341 24.8193 8.42627 24.6864 8.42627 24.5304C8.42627 24.3339 8.50287 24.1432 8.63251 24.0103C8.74447 23.8948 8.93303 23.7792 9.23945 23.7792C9.41622 23.7792 9.55765 23.8139 9.69907 23.9063C9.78157 23.9583 9.89352 24.0508 9.98191 24.2068Z" fill="black"/>
<path d="M3.80274 26.5112H4.04743C4.25579 26.5112 4.38661 26.5377 4.49321 26.6365C4.58043 26.7184 4.62162 26.822 4.62162 26.9545C4.62162 27.0172 4.61193 27.0822 4.57316 27.1449C4.53682 27.2075 4.48837 27.2388 4.45203 27.2557C4.4811 27.2629 4.58043 27.2894 4.66038 27.3714C4.7476 27.4629 4.76698 27.5738 4.76698 27.6725C4.76698 27.7882 4.73791 27.8797 4.66038 27.9617C4.53198 28.0966 4.33089 28.1183 4.20733 28.1183H3.80274V26.5112ZM4.04986 26.7425V27.2027H4.12496C4.18553 27.2027 4.2679 27.1955 4.32605 27.1401C4.38177 27.0871 4.38904 27.0124 4.38904 26.9569C4.38904 26.9088 4.38177 26.8509 4.33089 26.8027C4.27517 26.7497 4.20491 26.7425 4.13465 26.7425H4.04986ZM4.04986 27.4051V27.887H4.20006C4.27032 27.887 4.38177 27.8749 4.44476 27.8243C4.49321 27.7858 4.52471 27.7183 4.52471 27.646C4.52471 27.581 4.50048 27.5183 4.45929 27.4774C4.39146 27.4123 4.29213 27.4051 4.20491 27.4051H4.04986Z" fill="#739094"/>
<path fill-rule="evenodd" clip-rule="evenodd" d="M12.3202 23.9399H14.2487C14.4262 23.9399 14.5701 24.0838 14.5701 24.2613V27.7969C14.5701 27.9744 14.4262 28.1183 14.2487 28.1183H11.9988V27.654H13.9273C14.016 27.654 14.088 27.5821 14.088 27.4933V26.7314C14.088 26.6427 14.016 26.5707 13.9273 26.5707H12.3202C12.1427 26.5707 11.9988 26.4268 11.9988 26.2493V24.2613C11.9988 24.0838 12.1427 23.9399 12.3202 23.9399ZM12.4809 24.7256V25.785C12.4809 25.9626 12.6248 26.1065 12.8023 26.1065H14.088V24.7256C14.088 24.5481 13.9441 24.4042 13.7666 24.4042H12.8023C12.6248 24.4042 12.4809 24.5481 12.4809 24.7256Z" fill="#739094"/>
<path d="M7.41418 28.1183L7.25793 27.7518H6.6218L6.45886 28.1183H6.21334L6.95438 26.5112L7.6597 28.1183H7.41418ZM6.71555 27.5333H7.16642L6.94545 27.0188L6.71555 27.5333Z" fill="#739094"/>
<mask id="mask0_1179_4199" style="mask-type:alpha" maskUnits="userSpaceOnUse" x="3" y="3" width="27" height="19">
<path d="M6.60188 7.23811H3.56604V21.0339H6.60188V7.23811Z" fill="#4F4F4F"/>
<path d="M6.60188 6.20054H3.56055L6.60188 3.74112V6.20054Z" fill="#4F4F4F"/>
<path d="M10.6533 3H7.63396V13.9576C7.63396 17.8627 10.7997 21.0284 14.7048 21.0284V17.9981C12.4672 17.9981 10.6533 16.1842 10.6533 13.9466V9.41206H14.7048V6.20054H10.6533V3Z" fill="#4F4F4F"/>
<path d="M29.9993 13.6172C29.9993 17.7134 26.8189 21.0339 22.8955 21.0339C18.9722 21.0339 15.7918 17.7134 15.7918 13.6172C15.7918 9.52111 18.9722 6.20054 22.8955 6.20054C26.8189 6.20054 29.9993 9.52111 29.9993 13.6172ZM18.7798 13.6172C18.7798 15.9904 20.6225 17.9142 22.8955 17.9142C25.1686 17.9142 27.0113 15.9904 27.0113 13.6172C27.0113 11.2441 25.1686 9.32023 22.8955 9.32023C20.6225 9.32023 18.7798 11.2441 18.7798 13.6172Z" fill="#4F4F4F"/>
<path d="M18.8331 3.00549H15.7918V13.0737C15.7918 15.7123 18.8331 13.9761 18.8331 11.3376V3.00549Z" fill="#4F4F4F"/>
</mask>
<g mask="url(#mask0_1179_4199)">
<path d="M-10.7246 6.11133L16.0747 -16.376L30.9092 1.30304L4.10984 23.7903L-10.7246 6.11133Z" fill="#0C8F41"/>
<path d="M-10.7246 6.11133L-8.71021 4.42105L6.12424 22.1001L4.10984 23.7903L-10.7246 6.11133Z" fill="#1A6C31"/>
<path d="M-6.18386 2.30119L-4.16946 0.610906L10.665 18.2899L8.65059 19.9802L-6.18386 2.30119Z" fill="#1A6C31"/>
<path d="M2.91989 -5.33777L4.93429 -7.02805L19.7687 10.651L17.7543 12.3412L2.91989 -5.33777Z" fill="#1A6C31"/>
<path d="M12.0236 -12.9767L14.038 -14.667L28.8725 3.012L26.8581 4.70229L12.0236 -12.9767Z" fill="#1A6C31"/>
<path d="M-1.63198 -1.51829L0.382417 -3.20857L15.2169 14.4704L13.2025 16.1607L-1.63198 -1.51829Z" fill="#1A6C31"/>
<path d="M7.47177 -9.15725L9.48617 -10.8475L24.3206 6.83148L22.3062 8.52176L7.47177 -9.15725Z" fill="#1A6C31"/>
<path d="M4.11035 23.7852L30.9097 1.29786L45.7441 18.9769L18.9448 41.4642L4.11035 23.7852Z" fill="#4F4F4F"/>
<path d="M4.11035 23.7852L6.12475 22.0949L20.9592 39.7739L18.9448 41.4642L4.11035 23.7852Z" fill="#4F4F4F"/>
<path d="M8.6511 19.975L10.6655 18.2847L25.5 35.9637L23.4856 37.654L8.6511 19.975Z" fill="#4F4F4F"/>
<path d="M17.7549 12.3361L19.7693 10.6458L34.6037 28.3248L32.5893 30.0151L17.7549 12.3361Z" fill="#4F4F4F"/>
<path d="M26.8586 4.6971L28.873 3.00682L43.7075 20.6858L41.6931 22.3761L26.8586 4.6971Z" fill="#4F4F4F"/>
<path d="M13.203 16.1555L15.2174 14.4653L30.0518 32.1443L28.0374 33.8346L13.203 16.1555Z" fill="#4F4F4F"/>
<path d="M22.3067 8.51658L24.3211 6.8263L39.1556 24.5053L37.1412 26.1956L22.3067 8.51658Z" fill="#4F4F4F"/>
</g>
</svg>
