<svg width="32" height="32" viewBox="0 0 32 32" fill="none" xmlns="http://www.w3.org/2000/svg">
<g clip-path="url(#clip0_1400_4467)">
<mask id="mask0_1400_4467" style="mask-type:luminance" maskUnits="userSpaceOnUse" x="0" y="0" width="32" height="32">
<path d="M32 0H0V32H32V0Z" fill="white"/>
</mask>
<g mask="url(#mask0_1400_4467)">
<path d="M0 8C0 4.22876 0 2.34315 1.17157 1.17157C2.34315 0 4.22876 0 8 0H24C27.7712 0 29.6569 0 30.8284 1.17157C32 2.34315 32 4.22876 32 8V24C32 27.7712 32 29.6569 30.8284 30.8284C29.6569 32 27.7712 32 24 32H8C4.22876 32 2.34315 32 1.17157 30.8284C0 29.6569 0 27.7712 0 24V8Z" fill="white"/>
</g>
<path d="M5.28213 14.9091C4.53325 14.9091 3.91758 14.3048 4.00903 13.5676C4.30907 11.1494 5.41426 8.88426 7.16961 7.14342C8.92496 5.40257 11.2089 4.30652 13.6474 4.00896C14.3906 3.91826 15 4.52884 15 5.27154V13.5643C15 14.307 14.3929 14.9091 13.644 14.9091L5.28213 14.9091Z" fill="#00AE60"/>
<path d="M15 26.5302C15 27.2729 14.3907 27.8834 13.6474 27.7927C12.6578 27.6719 11.6872 27.4189 10.7622 27.039C9.41866 26.487 8.19789 25.6781 7.16958 24.6583C6.14128 23.6385 5.32558 22.4278 4.76907 21.0953C4.38594 20.178 4.13082 19.2154 4.00904 18.234C3.91756 17.4969 4.53322 16.8926 5.28211 16.8926L13.644 16.8926C14.3929 16.8926 15 17.4947 15 18.2374L15 26.5302Z" fill="#ADE5CC"/>
<path d="M17 5.28213C17 4.53325 17.6094 3.91758 18.3526 4.00903C20.7911 4.30907 23.075 5.41426 24.8304 7.16961C26.5857 8.92496 27.6909 11.2089 27.991 13.6474C28.0824 14.3906 27.4668 15 26.7179 15L18.356 15C17.6071 15 17 14.3929 17 13.644L17 5.28213Z" fill="#ADE5CC"/>
<path d="M28 18.3624C28 17.6197 27.3906 17.0091 26.6474 17.0998C24.2089 17.3974 21.925 18.4935 20.1696 20.2343C18.4143 21.9751 17.3091 24.2402 17.009 26.6585C16.9176 27.3957 17.5332 28 18.2821 28L26.644 28C27.3929 28 28 27.3979 28 26.6552L28 18.3624Z" fill="#00AE60"/>
</g>
<defs>
<clipPath id="clip0_1400_4467">
<rect width="32" height="32" fill="white"/>
</clipPath>
</defs>
</svg>
